<svg width="217" height="79" viewBox="0 0 217 79" fill="none" xmlns="http://www.w3.org/2000/svg">
<path d="M0 0H76V79H0V0Z" fill="#F9F3F3"/>
<path d="M10 4H66V9H10V4Z" fill="#3E3B3B"/>
<path d="M18 69L18 13H23L23 69H18Z" fill="#3E3B3B"/>
<path d="M52 69L52 13H57L57 69H52Z" fill="#3E3B3B"/>
<path d="M81.28 57C80.96 57 80.688 56.904 80.464 56.712C80.272 56.488 80.176 56.216 80.176 55.896V24.552C80.176 24.2 80.272 23.928 80.464 23.736C80.688 23.512 80.96 23.4 81.28 23.4H83.68C84.064 23.4 84.352 23.496 84.544 23.688C84.736 23.88 84.848 24.04 84.88 24.168L95.056 43.56L105.28 24.168C105.344 24.04 105.456 23.88 105.616 23.688C105.808 23.496 106.096 23.4 106.48 23.4H108.832C109.184 23.4 109.456 23.512 109.648 23.736C109.872 23.928 109.984 24.2 109.984 24.552V55.896C109.984 56.216 109.872 56.488 109.648 56.712C109.456 56.904 109.184 57 108.832 57H106.48C106.16 57 105.888 56.904 105.664 56.712C105.472 56.488 105.376 56.216 105.376 55.896V32.28L97.36 47.928C97.232 48.248 97.04 48.504 96.784 48.696C96.528 48.856 96.208 48.936 95.824 48.936H94.336C93.92 48.936 93.584 48.856 93.328 48.696C93.104 48.504 92.912 48.248 92.752 47.928L84.736 32.28V55.896C84.736 56.216 84.624 56.488 84.4 56.712C84.208 56.904 83.952 57 83.632 57H81.28Z" fill="black"/>
<path d="M118.765 57C118.445 57 118.173 56.904 117.949 56.712C117.757 56.488 117.661 56.216 117.661 55.896V33.144C117.661 32.824 117.757 32.568 117.949 32.376C118.173 32.152 118.445 32.04 118.765 32.04H121.069C121.389 32.04 121.645 32.152 121.837 32.376C122.029 32.568 122.125 32.824 122.125 33.144V55.896C122.125 56.216 122.029 56.488 121.837 56.712C121.645 56.904 121.389 57 121.069 57H118.765ZM118.381 27.384C118.061 27.384 117.789 27.288 117.565 27.096C117.373 26.872 117.277 26.6 117.277 26.28V23.688C117.277 23.368 117.373 23.112 117.565 22.92C117.789 22.696 118.061 22.584 118.381 22.584H121.405C121.725 22.584 121.981 22.696 122.173 22.92C122.397 23.112 122.509 23.368 122.509 23.688V26.28C122.509 26.6 122.397 26.872 122.173 27.096C121.981 27.288 121.725 27.384 121.405 27.384H118.381Z" fill="black"/>
<path d="M139.894 57C139.414 57 139.03 56.888 138.742 56.664C138.486 56.44 138.278 56.136 138.118 55.752L127.414 24.888C127.35 24.696 127.318 24.52 127.318 24.36C127.318 24.104 127.414 23.88 127.606 23.688C127.798 23.496 128.022 23.4 128.278 23.4H130.774C131.158 23.4 131.446 23.512 131.638 23.736C131.862 23.928 131.99 24.104 132.022 24.264L141.43 51.48L150.838 24.264C150.902 24.104 151.03 23.928 151.222 23.736C151.414 23.512 151.702 23.4 152.086 23.4H154.582C154.838 23.4 155.062 23.496 155.254 23.688C155.478 23.88 155.59 24.104 155.59 24.36C155.59 24.52 155.558 24.696 155.494 24.888L144.742 55.752C144.614 56.136 144.406 56.44 144.118 56.664C143.862 56.888 143.494 57 143.014 57H139.894Z" fill="black"/>
<path d="M168.191 57.48C164.895 57.48 162.271 56.472 160.319 54.456C158.367 52.408 157.295 49.624 157.103 46.104C157.071 45.688 157.055 45.16 157.055 44.52C157.055 43.848 157.071 43.304 157.103 42.888C157.231 40.616 157.759 38.632 158.687 36.936C159.615 35.208 160.879 33.88 162.479 32.952C164.111 32.024 166.015 31.56 168.191 31.56C170.623 31.56 172.655 32.072 174.287 33.096C175.951 34.12 177.215 35.576 178.079 37.464C178.943 39.352 179.375 41.56 179.375 44.088V44.904C179.375 45.256 179.263 45.528 179.039 45.72C178.847 45.912 178.591 46.008 178.271 46.008H161.663C161.663 46.04 161.663 46.104 161.663 46.2C161.663 46.296 161.663 46.376 161.663 46.44C161.727 47.752 162.015 48.984 162.527 50.136C163.039 51.256 163.775 52.168 164.735 52.872C165.695 53.576 166.847 53.928 168.191 53.928C169.343 53.928 170.303 53.752 171.071 53.4C171.839 53.048 172.463 52.664 172.943 52.248C173.423 51.8 173.743 51.464 173.903 51.24C174.191 50.824 174.415 50.584 174.575 50.52C174.735 50.424 174.991 50.376 175.343 50.376H177.647C177.967 50.376 178.223 50.472 178.415 50.664C178.639 50.824 178.735 51.064 178.703 51.384C178.671 51.864 178.415 52.456 177.935 53.16C177.455 53.832 176.767 54.504 175.871 55.176C174.975 55.848 173.887 56.408 172.607 56.856C171.327 57.272 169.855 57.48 168.191 57.48ZM161.663 42.696H174.815V42.552C174.815 41.112 174.543 39.832 173.999 38.712C173.487 37.592 172.735 36.712 171.743 36.072C170.751 35.4 169.567 35.064 168.191 35.064C166.815 35.064 165.631 35.4 164.639 36.072C163.679 36.712 162.943 37.592 162.431 38.712C161.919 39.832 161.663 41.112 161.663 42.552V42.696Z" fill="black"/>
<path d="M195.194 57.48C192.922 57.48 190.954 57.048 189.29 56.184C187.658 55.288 186.394 54.024 185.498 52.392C184.602 50.728 184.122 48.744 184.058 46.44C184.026 45.96 184.01 45.32 184.01 44.52C184.01 43.72 184.026 43.08 184.058 42.6C184.122 40.296 184.602 38.328 185.498 36.696C186.394 35.032 187.658 33.768 189.29 32.904C190.954 32.008 192.922 31.56 195.194 31.56C197.05 31.56 198.634 31.816 199.946 32.328C201.29 32.84 202.394 33.496 203.258 34.296C204.122 35.096 204.762 35.96 205.178 36.888C205.626 37.816 205.866 38.696 205.898 39.528C205.93 39.848 205.834 40.104 205.61 40.296C205.386 40.488 205.114 40.584 204.794 40.584H202.49C202.17 40.584 201.93 40.52 201.77 40.392C201.61 40.232 201.45 39.976 201.29 39.624C200.714 38.056 199.93 36.952 198.938 36.312C197.946 35.672 196.714 35.352 195.242 35.352C193.322 35.352 191.754 35.944 190.538 37.128C189.354 38.312 188.714 40.216 188.618 42.84C188.586 43.992 188.586 45.112 188.618 46.2C188.714 48.856 189.354 50.776 190.538 51.96C191.754 53.112 193.322 53.688 195.242 53.688C196.714 53.688 197.946 53.368 198.938 52.728C199.93 52.088 200.714 50.984 201.29 49.416C201.45 49.064 201.61 48.824 201.77 48.696C201.93 48.536 202.17 48.456 202.49 48.456H204.794C205.114 48.456 205.386 48.552 205.61 48.744C205.834 48.936 205.93 49.192 205.898 49.512C205.866 50.184 205.722 50.872 205.466 51.576C205.21 52.28 204.794 53 204.218 53.736C203.674 54.44 202.986 55.08 202.154 55.656C201.322 56.2 200.314 56.648 199.13 57C197.978 57.32 196.666 57.48 195.194 57.48Z" fill="black"/>
<path d="M212.703 57C212.383 57 212.111 56.904 211.887 56.712C211.695 56.488 211.599 56.216 211.599 55.896V33.144C211.599 32.824 211.695 32.568 211.887 32.376C212.111 32.152 212.383 32.04 212.703 32.04H215.007C215.327 32.04 215.583 32.152 215.775 32.376C215.967 32.568 216.063 32.824 216.063 33.144V55.896C216.063 56.216 215.967 56.488 215.775 56.712C215.583 56.904 215.327 57 215.007 57H212.703ZM212.319 27.384C211.999 27.384 211.727 27.288 211.503 27.096C211.311 26.872 211.215 26.6 211.215 26.28V23.688C211.215 23.368 211.311 23.112 211.503 22.92C211.727 22.696 211.999 22.584 212.319 22.584H215.343C215.663 22.584 215.919 22.696 216.111 22.92C216.335 23.112 216.447 23.368 216.447 23.688V26.28C216.447 26.6 216.335 26.872 216.111 27.096C215.919 27.288 215.663 27.384 215.343 27.384H212.319Z" fill="black"/>
</svg>
